<svg xmlns="http://www.w3.org/2000/svg" xmlns:xlink="http://www.w3.org/1999/xlink" width="180" zoomAndPan="magnify" viewBox="0 0 135 135.000003" height="180" preserveAspectRatio="xMidYMid meet" version="1.0"><defs><clipPath id="2e72ddf68d"><path d="M 0.496094 0 L 134.503906 0 L 134.503906 134.007812 L 0.496094 134.007812 Z M 0.496094 0 " clip-rule="nonzero"/></clipPath><clipPath id="ddee9d8482"><path d="M 41 4 L 125 4 L 125 127.546875 L 41 127.546875 Z M 41 4 " clip-rule="nonzero"/></clipPath><clipPath id="30371b62be"><path d="M 7.371094 48 L 21 48 L 21 89 L 7.371094 89 Z M 7.371094 48 " clip-rule="nonzero"/></clipPath></defs><g clip-path="url(#2e72ddf68d)"><path fill="#ffffff" d="M 0.496094 0 L 134.503906 0 L 134.503906 134.007812 L 0.496094 134.007812 Z M 0.496094 0 " fill-opacity="1" fill-rule="nonzero"/><path fill="#000000" d="M 0.496094 0 L 134.503906 0 L 134.503906 134.007812 L 0.496094 134.007812 Z M 0.496094 0 " fill-opacity="1" fill-rule="nonzero"/></g><g clip-path="url(#ddee9d8482)"><path fill="#ffffff" d="M 64.808594 30.691406 C 65.195312 31.078125 65.675781 31.269531 66.15625 31.269531 L 77.695312 31.269531 C 78.175781 31.269531 78.65625 31.078125 79.039062 30.691406 L 82.214844 27.519531 C 83.175781 28 84.234375 28.289062 85.386719 28.289062 C 89.136719 28.289062 92.117188 25.308594 92.117188 21.558594 C 92.117188 17.808594 89.136719 14.828125 85.386719 14.828125 C 81.636719 14.828125 78.65625 17.808594 78.65625 21.558594 C 78.65625 22.710938 78.945312 23.769531 79.425781 24.730469 L 76.925781 27.421875 L 66.925781 27.421875 L 60.386719 20.886719 L 60.386719 8.191406 L 65.960938 8.191406 C 66.15625 8.191406 66.347656 8.289062 66.539062 8.191406 C 83.65625 7.519531 101.253906 15.308594 109.8125 31.269531 L 103.367188 31.269531 C 102.503906 28.480469 100.003906 26.460938 96.925781 26.460938 C 93.175781 26.460938 90.195312 29.441406 90.195312 33.191406 C 90.195312 36.269531 92.214844 38.769531 95.003906 39.636719 L 95.003906 57.234375 L 80.578125 57.234375 C 79.519531 57.234375 78.65625 58.097656 78.65625 59.15625 L 78.65625 69.734375 L 74.808594 69.734375 L 74.808594 58.195312 C 74.808594 57.617188 74.519531 57.136719 74.136719 56.753906 L 68.078125 51.558594 L 68.078125 38.960938 L 75.964844 38.960938 L 78.558594 41.558594 C 78.078125 42.519531 77.789062 43.578125 77.789062 44.730469 C 77.789062 48.484375 80.769531 51.464844 84.519531 51.464844 C 88.273438 51.464844 91.253906 48.484375 91.253906 44.730469 C 91.253906 40.980469 88.273438 38 84.519531 38 C 83.367188 38 82.308594 38.289062 81.347656 38.769531 L 78.175781 35.597656 C 77.695312 35.308594 77.214844 35.117188 76.734375 35.117188 L 66.15625 35.117188 C 65.097656 35.117188 64.230469 35.980469 64.230469 37.039062 L 64.230469 52.425781 C 64.230469 53.003906 64.519531 53.484375 64.90625 53.867188 L 70.964844 59.058594 L 70.964844 69.734375 L 63.269531 69.734375 C 62.789062 69.734375 62.308594 69.925781 61.925781 70.3125 L 46.539062 85.695312 C 46.152344 86.082031 45.960938 86.5625 45.960938 87.042969 L 45.960938 102.714844 C 43.171875 103.582031 41.152344 106.082031 41.152344 109.160156 C 41.152344 112.910156 44.132812 115.890625 47.886719 115.890625 C 51.636719 115.890625 54.617188 112.910156 54.617188 109.160156 C 54.617188 106.082031 52.597656 103.582031 49.808594 102.714844 L 49.808594 87.8125 L 64.039062 73.578125 L 98.847656 73.578125 C 99.617188 73.578125 100.292969 73.195312 100.578125 72.523438 L 106.347656 60.984375 C 106.445312 60.695312 106.542969 60.40625 106.542969 60.117188 L 106.542969 53.386719 L 115.003906 53.386719 L 115.003906 61.273438 L 112.503906 66.753906 C 112.3125 67.234375 112.3125 67.714844 112.40625 68.195312 L 120.871094 90.792969 C 120.871094 90.890625 120.871094 90.984375 120.871094 91.082031 C 120.773438 91.175781 120.773438 91.175781 120.675781 91.175781 L 112.40625 91.175781 C 111.832031 91.175781 111.253906 91.464844 110.867188 91.945312 C 110.484375 92.425781 110.386719 93.101562 110.582031 93.675781 L 112.886719 100.410156 L 108.464844 101.945312 C 107.886719 102.140625 107.40625 102.621094 107.214844 103.195312 C 107.023438 103.773438 107.117188 104.445312 107.503906 104.929688 L 110.386719 108.871094 L 107.886719 110.792969 C 107.40625 111.179688 107.117188 111.753906 107.117188 112.332031 L 107.117188 117.234375 C 107.117188 119.449219 105.964844 121.5625 104.042969 122.621094 C 103.175781 123.199219 102.117188 123.488281 101.0625 123.488281 C 93.078125 123.582031 62.308594 113.484375 62.308594 96.660156 L 62.308594 92.621094 C 62.308594 91.5625 61.441406 90.695312 60.386719 90.695312 C 59.328125 90.695312 58.460938 91.5625 58.460938 92.621094 L 58.460938 96.660156 C 58.460938 117.140625 92.984375 127.429688 101.15625 127.429688 C 102.886719 127.429688 104.617188 126.949219 106.0625 126.082031 C 109.136719 124.257812 110.964844 120.988281 110.964844 117.332031 L 110.964844 113.292969 L 114.136719 110.792969 C 114.90625 110.121094 115.101562 108.964844 114.523438 108.199219 L 112.121094 104.832031 L 115.964844 103.484375 C 116.925781 103.101562 117.503906 102.042969 117.121094 101.082031 L 115.101562 95.023438 L 120.675781 95.023438 C 122.023438 95.023438 123.273438 94.351562 124.042969 93.292969 C 124.8125 92.140625 125.003906 90.695312 124.523438 89.445312 L 116.351562 67.617188 L 118.65625 62.523438 C 118.753906 62.234375 118.851562 62.039062 118.851562 61.753906 L 118.851562 51.175781 C 118.273438 36.65625 112.3125 24.441406 101.734375 15.789062 C 92.117188 7.902344 79.714844 3.960938 66.539062 4.34375 C 66.445312 4.34375 66.25 4.34375 66.15625 4.34375 L 58.460938 4.34375 C 57.40625 4.34375 56.539062 5.210938 56.539062 6.269531 L 56.539062 21.652344 C 56.539062 22.136719 56.730469 22.617188 57.117188 23 Z M 85.386719 18.769531 C 87.023438 18.769531 88.273438 20.019531 88.273438 21.652344 C 88.273438 23.289062 87.023438 24.539062 85.386719 24.539062 C 83.753906 24.539062 82.503906 23.289062 82.503906 21.652344 C 82.503906 20.019531 83.753906 18.769531 85.386719 18.769531 Z M 84.425781 41.847656 C 86.058594 41.847656 87.308594 43.097656 87.308594 44.730469 C 87.308594 46.367188 86.058594 47.617188 84.425781 47.617188 C 82.789062 47.617188 81.539062 46.367188 81.539062 44.730469 C 81.539062 43.097656 82.789062 41.847656 84.425781 41.847656 Z M 50.769531 109.160156 C 50.769531 110.792969 49.519531 112.042969 47.886719 112.042969 C 46.25 112.042969 45 110.792969 45 109.160156 C 45 107.523438 46.25 106.273438 47.886719 106.273438 C 49.519531 106.273438 50.769531 107.523438 50.769531 109.160156 Z M 94.042969 33.191406 C 94.042969 31.558594 95.292969 30.308594 96.925781 30.308594 C 98.5625 30.308594 99.8125 31.558594 99.8125 33.191406 C 99.8125 34.828125 98.5625 36.078125 96.925781 36.078125 C 95.292969 36.078125 94.042969 34.828125 94.042969 33.191406 Z M 114.90625 49.539062 L 104.617188 49.539062 C 103.5625 49.539062 102.695312 50.40625 102.695312 51.464844 L 102.695312 59.636719 L 97.695312 69.734375 L 82.503906 69.734375 L 82.503906 61.078125 L 96.925781 61.078125 C 97.984375 61.078125 98.847656 60.214844 98.847656 59.15625 L 98.847656 39.636719 C 101.0625 38.960938 102.695312 37.230469 103.367188 35.117188 L 111.636719 35.117188 C 113.371094 39.445312 114.523438 44.25 114.90625 49.539062 Z M 114.90625 49.539062 " fill-opacity="1" fill-rule="nonzero"/></g><path fill="#ffffff" d="M 13.269531 17.519531 L 13.269531 34.15625 C 13.269531 34.730469 13.554688 35.308594 13.941406 35.695312 L 24.519531 44.15625 C 24.613281 44.25 24.710938 44.25 24.808594 44.347656 L 24.808594 64.925781 C 24.808594 65.40625 25 65.792969 25.289062 66.175781 L 30.578125 72.328125 L 30.578125 88.292969 C 27.789062 89.15625 25.769531 91.65625 25.769531 94.734375 C 25.769531 98.484375 28.75 101.464844 32.5 101.464844 C 36.25 101.464844 39.230469 98.484375 39.230469 94.734375 C 39.230469 91.65625 37.210938 89.15625 34.421875 88.292969 L 34.421875 71.65625 C 34.421875 71.175781 34.230469 70.792969 33.941406 70.40625 L 28.652344 64.253906 L 28.652344 22.039062 L 38.269531 27.519531 L 38.269531 31.460938 C 35.480469 32.328125 33.460938 34.828125 33.460938 37.90625 C 33.460938 41.65625 36.441406 44.636719 40.191406 44.636719 C 43.941406 44.636719 46.921875 41.65625 46.921875 37.90625 C 46.921875 34.828125 44.902344 32.328125 42.117188 31.460938 L 42.117188 26.460938 C 42.117188 25.789062 41.730469 25.117188 41.152344 24.828125 L 27.691406 17.132812 C 27.113281 16.75 26.34375 16.75 25.769531 17.132812 C 25.191406 17.519531 24.808594 18.097656 24.808594 18.769531 L 24.808594 39.445312 L 17.113281 33.191406 L 17.113281 17.519531 C 19.902344 16.652344 21.921875 14.152344 21.921875 11.078125 C 21.921875 7.328125 18.941406 4.34375 15.191406 4.34375 C 11.441406 4.34375 8.460938 7.328125 8.460938 11.078125 C 8.460938 14.152344 10.480469 16.652344 13.269531 17.519531 Z M 35.382812 94.734375 C 35.382812 96.371094 34.132812 97.621094 32.5 97.621094 C 30.863281 97.621094 29.613281 96.371094 29.613281 94.734375 C 29.613281 93.101562 30.863281 91.851562 32.5 91.851562 C 34.132812 91.851562 35.382812 93.101562 35.382812 94.734375 Z M 43.078125 38 C 43.078125 39.636719 41.828125 40.886719 40.191406 40.886719 C 38.558594 40.886719 37.308594 39.636719 37.308594 38 C 37.308594 36.367188 38.558594 35.117188 40.191406 35.117188 C 41.828125 35.117188 43.078125 36.367188 43.078125 38 Z M 15.191406 8.191406 C 16.824219 8.191406 18.074219 9.441406 18.074219 11.078125 C 18.074219 12.710938 16.824219 13.960938 15.191406 13.960938 C 13.554688 13.960938 12.304688 12.710938 12.304688 11.078125 C 12.304688 9.441406 13.554688 8.191406 15.191406 8.191406 Z M 15.191406 8.191406 " fill-opacity="1" fill-rule="nonzero"/><path fill="#ffffff" d="M 56.539062 34.925781 L 56.539062 63.097656 L 42.117188 77.523438 L 42.117188 63.675781 C 44.902344 62.808594 46.921875 60.308594 46.921875 57.234375 C 46.921875 53.484375 43.941406 50.5 40.191406 50.5 C 36.441406 50.5 33.460938 53.484375 33.460938 57.234375 C 33.460938 60.308594 35.480469 62.808594 38.269531 63.675781 L 38.269531 82.234375 C 38.269531 83.003906 38.75 83.675781 39.421875 83.964844 C 39.710938 84.15625 39.902344 84.15625 40.191406 84.15625 C 40.671875 84.15625 41.152344 83.964844 41.539062 83.582031 L 59.808594 65.308594 C 60.191406 64.925781 60.386719 64.445312 60.386719 63.964844 L 60.386719 34.15625 C 60.386719 33.675781 60.191406 33.191406 59.808594 32.808594 L 52.691406 25.691406 L 52.691406 11.078125 C 52.691406 10.019531 51.828125 9.152344 50.769531 9.152344 C 49.710938 9.152344 48.847656 10.019531 48.847656 11.078125 L 48.847656 26.460938 C 48.847656 26.941406 49.039062 27.421875 49.421875 27.808594 Z M 40.191406 60.117188 C 38.558594 60.117188 37.308594 58.867188 37.308594 57.234375 C 37.308594 55.597656 38.558594 54.347656 40.191406 54.347656 C 41.828125 54.347656 43.078125 55.597656 43.078125 57.234375 C 43.078125 58.867188 41.828125 60.117188 40.191406 60.117188 Z M 40.191406 60.117188 " fill-opacity="1" fill-rule="nonzero"/><g clip-path="url(#30371b62be)"><path fill="#ffffff" d="M 7.5 81.273438 C 7.5 85.023438 10.480469 88.003906 14.230469 88.003906 C 17.980469 88.003906 20.960938 85.023438 20.960938 81.273438 C 20.960938 78.195312 18.941406 75.695312 16.152344 74.832031 L 16.152344 61.753906 C 18.941406 60.886719 20.960938 58.386719 20.960938 55.308594 C 20.960938 51.558594 17.980469 48.578125 14.230469 48.578125 C 10.480469 48.578125 7.5 51.558594 7.5 55.308594 C 7.5 58.386719 9.515625 60.886719 12.304688 61.753906 L 12.304688 74.832031 C 9.515625 75.695312 7.5 78.195312 7.5 81.273438 Z M 11.34375 55.308594 C 11.34375 53.675781 12.59375 52.425781 14.230469 52.425781 C 15.863281 52.425781 17.113281 53.675781 17.113281 55.308594 C 17.113281 56.945312 15.863281 58.195312 14.230469 58.195312 C 12.59375 58.195312 11.34375 56.945312 11.34375 55.308594 Z M 14.230469 78.386719 C 15.863281 78.386719 17.113281 79.636719 17.113281 81.273438 C 17.113281 82.90625 15.863281 84.15625 14.230469 84.15625 C 12.59375 84.15625 11.34375 82.90625 11.34375 81.273438 C 11.34375 79.636719 12.59375 78.386719 14.230469 78.386719 Z M 14.230469 78.386719 " fill-opacity="1" fill-rule="nonzero"/></g></svg>