<svg xmlns="http://www.w3.org/2000/svg" xmlns:xlink="http://www.w3.org/1999/xlink" width="180" zoomAndPan="magnify" viewBox="0 0 135 135.000003" height="180" preserveAspectRatio="xMidYMid meet" version="1.0"><defs><clipPath id="a7891c2c11"><path d="M 0.496094 0 L 134.503906 0 L 134.503906 134.007812 L 0.496094 134.007812 Z M 0.496094 0 " clip-rule="nonzero"/></clipPath><clipPath id="36d499f855"><path d="M 4.601562 37 L 59 37 L 59 102 L 4.601562 102 Z M 4.601562 37 " clip-rule="nonzero"/></clipPath><clipPath id="dbc0d7df78"><path d="M 117 89 L 130.421875 89 L 130.421875 102.699219 L 117 102.699219 Z M 117 89 " clip-rule="nonzero"/></clipPath><clipPath id="2ee6fa02fc"><path d="M 112 31.230469 L 126 31.230469 L 126 45 L 112 45 Z M 112 31.230469 " clip-rule="nonzero"/></clipPath></defs><g clip-path="url(#a7891c2c11)"><path fill="#ffffff" d="M 0.496094 0 L 134.503906 0 L 134.503906 134.007812 L 0.496094 134.007812 Z M 0.496094 0 " fill-opacity="1" fill-rule="nonzero"/><path fill="#000000" d="M 0.496094 0 L 134.503906 0 L 134.503906 134.007812 L 0.496094 134.007812 Z M 0.496094 0 " fill-opacity="1" fill-rule="nonzero"/></g><g clip-path="url(#36d499f855)"><path fill="#ffffff" d="M 23.742188 73.078125 L 38.765625 73.078125 L 33.320312 57.070312 C 32.480469 54.613281 31.816406 52.292969 31.210938 50.054688 C 30.535156 52.570312 29.878906 54.816406 29.203125 56.957031 Z M 40.488281 75.542969 L 22.023438 75.542969 C 21.628906 75.542969 21.253906 75.351562 21.023438 75.035156 C 20.792969 74.707031 20.722656 74.292969 20.859375 73.917969 L 26.863281 56.183594 C 27.875 52.984375 28.847656 49.476562 29.917969 45.1875 C 30.0625 44.640625 30.554688 44.253906 31.113281 44.253906 C 31.679688 44.253906 32.355469 44.628906 32.5 45.179688 L 32.644531 45.738281 C 33.492188 49.082031 34.378906 52.53125 35.652344 56.269531 L 41.65625 73.917969 C 41.78125 74.292969 41.722656 74.707031 41.492188 75.035156 C 41.261719 75.351562 40.882812 75.542969 40.488281 75.542969 Z M 49.558594 98.546875 L 55.40625 98.546875 L 35.332031 39.714844 L 27.546875 39.714844 L 7.5625 98.546875 L 13.128906 98.546875 L 19.210938 80.113281 C 19.386719 79.613281 19.855469 79.265625 20.386719 79.265625 L 42.128906 79.265625 C 42.65625 79.265625 43.121094 79.601562 43.292969 80.101562 Z M 57.132812 101.015625 L 48.671875 101.015625 C 48.140625 101.015625 47.679688 100.675781 47.503906 100.175781 L 41.242188 81.730469 L 21.285156 81.730469 L 15.191406 100.167969 C 15.027344 100.675781 14.558594 101.015625 14.027344 101.015625 L 5.835938 101.015625 C 5.441406 101.015625 5.066406 100.820312 4.832031 100.503906 C 4.601562 100.175781 4.535156 99.761719 4.667969 99.386719 L 25.496094 38.085938 C 25.667969 37.585938 26.128906 37.25 26.660156 37.25 L 36.210938 37.25 C 36.742188 37.25 37.214844 37.585938 37.375 38.085938 L 58.296875 99.386719 C 58.421875 99.761719 58.367188 100.175781 58.132812 100.503906 C 57.902344 100.820312 57.527344 101.015625 57.132812 101.015625 " fill-opacity="1" fill-rule="nonzero"/></g><path fill="#ffffff" d="M 63.820312 98.546875 L 69.265625 98.546875 L 69.265625 39.714844 L 63.820312 39.714844 Z M 70.5 101.015625 L 62.585938 101.015625 C 61.902344 101.015625 61.351562 100.464844 61.351562 99.78125 L 61.351562 38.480469 C 61.351562 37.796875 61.902344 37.25 62.585938 37.25 L 70.5 37.25 C 71.183594 37.25 71.730469 37.796875 71.730469 38.480469 L 71.730469 99.78125 C 71.730469 100.464844 71.183594 101.015625 70.5 101.015625 " fill-opacity="1" fill-rule="nonzero"/><path fill="#ffffff" d="M 118.808594 97.585938 L 109.160156 97.585938 C 108.824219 97.585938 108.507812 97.449219 108.273438 97.199219 L 98.984375 87.550781 L 76.386719 87.550781 C 75.710938 87.550781 75.152344 87.003906 75.152344 86.320312 C 75.152344 85.644531 75.710938 85.085938 76.386719 85.085938 L 99.515625 85.085938 C 99.84375 85.085938 100.171875 85.230469 100.402344 85.46875 L 109.683594 95.117188 L 118.808594 95.117188 C 119.492188 95.117188 120.042969 95.667969 120.042969 96.351562 C 120.042969 97.023438 119.492188 97.585938 118.808594 97.585938 " fill-opacity="1" fill-rule="nonzero"/><path fill="#ffffff" d="M 109.355469 65.53125 L 85.328125 65.53125 C 84.65625 65.53125 84.097656 64.972656 84.097656 64.296875 C 84.097656 63.613281 84.65625 63.066406 85.328125 63.066406 L 109.027344 63.066406 L 117.746094 58.035156 C 118.335938 57.699219 119.097656 57.898438 119.433594 58.488281 C 119.769531 59.085938 119.570312 59.835938 118.980469 60.175781 L 109.972656 65.367188 C 109.789062 65.472656 109.566406 65.53125 109.355469 65.53125 " fill-opacity="1" fill-rule="nonzero"/><path fill="#ffffff" d="M 94.78125 54.574219 L 75.960938 54.574219 C 75.277344 54.574219 74.730469 54.015625 74.730469 53.339844 C 74.730469 52.65625 75.277344 52.109375 75.960938 52.109375 L 94.109375 52.109375 L 103.5625 37.007812 C 103.785156 36.652344 104.179688 36.429688 104.601562 36.429688 L 113.730469 36.429688 C 114.414062 36.429688 114.960938 36.988281 114.960938 37.664062 C 114.960938 38.347656 114.414062 38.894531 113.730469 38.894531 L 105.289062 38.894531 L 95.832031 53.996094 C 95.613281 54.351562 95.21875 54.574219 94.78125 54.574219 " fill-opacity="1" fill-rule="nonzero"/><g clip-path="url(#dbc0d7df78)"><path fill="#ffffff" d="M 124.003906 92.390625 C 121.8125 92.390625 120.042969 94.164062 120.042969 96.351562 C 120.042969 98.527344 121.8125 100.300781 124.003906 100.300781 C 126.179688 100.300781 127.953125 98.527344 127.953125 96.351562 C 127.953125 94.164062 126.179688 92.390625 124.003906 92.390625 Z M 124.003906 102.769531 C 120.457031 102.769531 117.574219 99.886719 117.574219 96.351562 C 117.574219 92.804688 120.457031 89.921875 124.003906 89.921875 C 127.539062 89.921875 130.421875 92.804688 130.421875 96.351562 C 130.421875 99.886719 127.539062 102.769531 124.003906 102.769531 " fill-opacity="1" fill-rule="nonzero"/></g><path fill="#ffffff" d="M 123.550781 55.152344 C 121.371094 55.152344 119.597656 56.925781 119.597656 59.105469 C 119.597656 61.292969 121.371094 63.066406 123.550781 63.066406 C 125.738281 63.066406 127.507812 61.292969 127.507812 59.105469 C 127.507812 56.925781 125.738281 55.152344 123.550781 55.152344 Z M 123.550781 65.53125 C 120.011719 65.53125 117.132812 62.652344 117.132812 59.105469 C 117.132812 55.566406 120.011719 52.6875 123.550781 52.6875 C 127.09375 52.6875 129.976562 55.566406 129.976562 59.105469 C 129.976562 62.652344 127.09375 65.53125 123.550781 65.53125 " fill-opacity="1" fill-rule="nonzero"/><g clip-path="url(#2ee6fa02fc)"><path fill="#ffffff" d="M 118.921875 33.710938 C 116.734375 33.710938 114.960938 35.484375 114.960938 37.664062 C 114.960938 39.851562 116.734375 41.625 118.921875 41.625 C 121.101562 41.625 122.875 39.851562 122.875 37.664062 C 122.875 35.484375 121.101562 33.710938 118.921875 33.710938 Z M 118.921875 44.089844 C 115.378906 44.089844 112.496094 41.207031 112.496094 37.664062 C 112.496094 34.125 115.378906 31.246094 118.921875 31.246094 C 122.460938 31.246094 125.339844 34.125 125.339844 37.664062 C 125.339844 41.207031 122.460938 44.089844 118.921875 44.089844 " fill-opacity="1" fill-rule="nonzero"/></g><path fill="#ffffff" d="M 103.667969 77.105469 L 81.925781 77.105469 C 81.253906 77.105469 80.695312 76.554688 80.695312 75.871094 C 80.695312 75.1875 81.253906 74.640625 81.925781 74.640625 L 103.667969 74.640625 C 104.351562 74.640625 104.902344 75.1875 104.902344 75.871094 C 104.902344 76.554688 104.351562 77.105469 103.667969 77.105469 " fill-opacity="1" fill-rule="nonzero"/><path fill="#ffffff" d="M 108.042969 72.730469 C 106.320312 72.730469 104.902344 74.136719 104.902344 75.871094 C 104.902344 77.605469 106.320312 79.015625 108.042969 79.015625 C 109.777344 79.015625 111.183594 77.605469 111.183594 75.871094 C 111.183594 74.136719 109.777344 72.730469 108.042969 72.730469 Z M 108.042969 81.480469 C 104.949219 81.480469 102.433594 78.964844 102.433594 75.871094 C 102.433594 72.777344 104.949219 70.265625 108.042969 70.265625 C 111.136719 70.265625 113.652344 72.777344 113.652344 75.871094 C 113.652344 78.964844 111.136719 81.480469 108.042969 81.480469 " fill-opacity="1" fill-rule="nonzero"/></svg>